HIERARCHY
ROOT joint_0
{
	OFFSET 0.000000 0.000000 0.000000
	CHANNELS 6 Xposition Yposition Zposition Zrotation Yrotation Xrotation 
	JOINT joint_1
	{
		OFFSET 6.004005 -1.946999 100.587036
		CHANNELS 3 Zrotation Yrotation Xrotation
		JOINT joint_2
		{
			OFFSET -4.601006 -0.824997 91.925903
			CHANNELS 3 Zrotation Yrotation Xrotation
			JOINT joint_3
			{
				OFFSET -5.420998 -1.130005 91.774048
				CHANNELS 3 Zrotation Yrotation Xrotation
				JOINT joint_4
				{
					OFFSET 4.308998 -3.777992 123.473999
					CHANNELS 3 Zrotation Yrotation Xrotation
					JOINT joint_5
					{
						OFFSET 25.565002 -6.305008 79.437988
						CHANNELS 3 Zrotation Yrotation Xrotation
						End Site
						{
							OFFSET 0.000000 0.000000 0.000000
						}
					}
				}
				JOINT joint_6
				{
					OFFSET -1.750000 -28.655998 68.557983
					CHANNELS 3 Zrotation Yrotation Xrotation
					JOINT joint_7
					{
						OFFSET -17.692001 -116.544006 -17.244019
						CHANNELS 3 Zrotation Yrotation Xrotation
						JOINT joint_8
						{
							OFFSET 27.063004 -23.640991 -266.895020
							CHANNELS 3 Zrotation Yrotation Xrotation
							JOINT joint_9
							{
								OFFSET 40.722000 -15.761017 -232.488953
								CHANNELS 3 Zrotation Yrotation Xrotation
								End Site
								{
									OFFSET 0.000000 0.000000 0.000000
								}
							}
						}
					}
				}
				JOINT joint_10
				{
					OFFSET 6.593002 24.457001 69.892944
					CHANNELS 3 Zrotation Yrotation Xrotation
					JOINT joint_11
					{
						OFFSET 24.311996 114.920002 -19.872925
						CHANNELS 3 Zrotation Yrotation Xrotation
						JOINT joint_12
						{
							OFFSET 21.081001 15.319000 -268.037964
							CHANNELS 3 Zrotation Yrotation Xrotation
							JOINT joint_13
							{
								OFFSET 27.794006 -8.947001 -234.744080
								CHANNELS 3 Zrotation Yrotation Xrotation
								End Site
								{
									OFFSET 0.000000 0.000000 0.000000
								}
							}
						}
					}
				}
			}
		}
	}
	JOINT joint_14
	{
		OFFSET -6.627998 -80.520004 -98.790039
		CHANNELS 3 Zrotation Yrotation Xrotation
		JOINT joint_15
		{
			OFFSET -43.638000 -13.751999 -502.538971
			CHANNELS 3 Zrotation Yrotation Xrotation
			JOINT joint_16
			{
				OFFSET -39.532999 -9.912994 -398.071007
				CHANNELS 3 Zrotation Yrotation Xrotation
				JOINT joint_17
				{
					OFFSET 174.940004 -34.660995 -75.688002
					CHANNELS 3 Zrotation Yrotation Xrotation
					End Site
					{
						OFFSET 0.000000 0.000000 0.000000
					}
				}
			}
		}
	}
	JOINT joint_18
	{
		OFFSET 12.591003 79.842003 -98.765015
		CHANNELS 3 Zrotation Yrotation Xrotation
		JOINT joint_19
		{
			OFFSET -39.080002 -1.297001 -503.101013
			CHANNELS 3 Zrotation Yrotation Xrotation
			JOINT joint_20
			{
				OFFSET -51.570000 -0.514000 -396.815987
				CHANNELS 3 Zrotation Yrotation Xrotation
				JOINT joint_21
				{
					OFFSET 178.987999 -11.521999 -73.244003
					CHANNELS 3 Zrotation Yrotation Xrotation
					End Site
					{
						OFFSET 0.000000 0.000000 0.000000
					}
				}
			}
		}
	}
}
MOTION
Frames: 10
Frame Time: 0.016667
92.883003 -135.119995 1099.495972 4.292575 1.579369 -2.532301 0.228641 -1.140488 2.652057 0.156327 -0.128451 -0.606352 0.174882 -0.702275 -0.177132 -0.251762 -0.905528 0.527519 0.000000 0.000000 0.000000 4.955829 -0.084996 4.041935 -0.391794 1.860101 -3.045098 0.341686 -1.338066 1.385598 0.000000 0.000000 0.000000 1.145374 -0.310501 0.363074 -0.414572 -0.768693 1.261821 -0.361704 4.632555 -1.702156 0.000000 0.000000 0.000000 -5.819726 1.028090 1.048843 -5.736570 -1.783477 0.860208 -5.708463 5.199176 -1.449430 0.000000 0.000000 0.000000 -0.436187 -2.097250 6.925379 0.275569 -0.861191 -1.262839 0.105314 1.594672 0.147564 0.000000 0.000000 0.000000 
93.913002 -135.147003 1099.352051 4.376504 1.712328 -2.528510 0.243731 -1.121188 2.664786 0.170282 -0.158299 -0.605577 0.188058 -0.724738 -0.183472 -0.254921 -0.877735 0.545918 0.000000 0.000000 0.000000 4.931954 -0.044585 4.031653 -0.394315 1.902604 -3.107400 0.357484 -1.337756 1.465365 0.000000 0.000000 0.000000 1.143389 -0.287249 0.380839 -0.408835 -0.743374 1.276660 -0.363641 4.631459 -1.755883 0.000000 0.000000 0.000000 -5.938921 0.925621 1.067931 -5.861831 -1.737336 0.921101 -5.821521 5.166660 -1.506997 0.000000 0.000000 0.000000 -0.360102 -2.254727 6.984889 0.373519 -0.786947 -1.280236 0.196519 1.724675 0.193673 0.000000 0.000000 0.000000 
95.042999 -135.287994 1099.209961 4.487394 1.894051 -2.538779 0.246949 -1.098519 2.697589 0.169284 -0.193342 -0.614388 0.186722 -0.752557 -0.182093 -0.260663 -0.827000 0.579345 0.000000 0.000000 0.000000 4.914550 -0.014965 4.017633 -0.393719 1.937496 -3.188066 0.376324 -1.311351 1.566026 0.000000 0.000000 0.000000 1.128628 -0.273705 0.372058 -0.408647 -0.749820 1.377616 -0.375013 4.736114 -1.867745 0.000000 0.000000 0.000000 -5.952516 0.770343 1.077729 -5.883985 -1.648505 0.980294 -5.834450 5.100365 -1.527210 0.000000 0.000000 0.000000 -0.357889 -2.515688 7.056245 0.408575 -0.577915 -1.272979 0.234818 1.759796 0.211796 0.000000 0.000000 0.000000 
96.255997 -135.507004 1099.062988 4.622673 2.118286 -2.558688 0.242888 -1.073851 2.746782 0.158516 -0.237385 -0.631322 0.177569 -0.778764 -0.175459 -0.269272 -0.758359 0.627327 0.000000 0.000000 0.000000 4.900624 0.009288 3.997055 -0.390396 1.968132 -3.280383 0.398255 -1.265057 1.686388 0.000000 0.000000 0.000000 1.100694 -0.267613 0.343891 -0.412756 -0.779414 1.542374 -0.393651 4.920774 -2.025061 0.000000 0.000000 0.000000 -5.893759 0.571436 1.079580 -5.836110 -1.532657 1.043882 -5.779116 5.012784 -1.521622 0.000000 0.000000 0.000000 -0.403807 -2.865033 7.139576 0.405166 -0.263932 -1.247274 0.241660 1.739517 0.213344 0.000000 0.000000 0.000000 
97.921997 -135.787994 1098.899048 4.747951 2.376354 -2.584997 0.233724 -1.030715 2.831240 0.139771 -0.295535 -0.656552 0.159492 -0.804233 -0.174492 -0.277998 -0.660492 0.684251 0.000000 0.000000 0.000000 4.884175 0.013453 3.978850 -0.386119 1.984798 -3.415242 0.418583 -1.182104 1.805743 0.000000 0.000000 0.000000 1.057362 -0.272889 0.313544 -0.418028 -0.828069 1.754294 -0.416227 5.145989 -2.212212 0.000000 0.000000 0.000000 -5.821046 0.305006 1.099917 -5.775359 -1.290103 1.080659 -5.708466 4.847771 -1.526067 0.000000 0.000000 0.000000 -0.470424 -3.250062 7.221578 0.383076 0.123111 -1.192471 0.236695 1.624755 0.203981 0.000000 0.000000 0.000000 
100.151001 -136.091003 1098.717041 4.847231 2.660313 -2.612046 0.223076 -0.947528 2.966275 0.111185 -0.377288 -0.692968 0.133206 -0.825502 -0.182867 -0.285112 -0.515132 0.749915 0.000000 0.000000 0.000000 4.864500 -0.015952 3.972549 -0.383023 1.980528 -3.625108 0.434584 -1.058706 1.910445 0.000000 0.000000 0.000000 0.984189 -0.301899 0.280339 -0.426454 -0.906618 2.015463 -0.443137 5.418697 -2.424018 0.000000 0.000000 0.000000 -5.773915 -0.056605 1.151148 -5.741676 -0.839583 1.069874 -5.659718 4.566791 -1.565482 0.000000 0.000000 0.000000 -0.549390 -3.660509 7.277161 0.346795 0.605505 -1.082671 0.228383 1.368776 0.184242 0.000000 0.000000 0.000000 
102.797997 -136.419006 1098.520996 4.931734 2.971585 -2.640495 0.209898 -0.827543 3.144076 0.075522 -0.480699 -0.742308 0.100644 -0.844273 -0.192088 -0.290453 -0.328198 0.822202 0.000000 0.000000 0.000000 4.843311 -0.071948 3.971259 -0.380460 1.959471 -3.896380 0.447955 -0.903016 2.007285 0.000000 0.000000 0.000000 0.880561 -0.352281 0.237290 -0.439117 -1.015017 2.329876 -0.475574 5.751189 -2.666943 0.000000 0.000000 0.000000 -5.731347 -0.502610 1.221693 -5.714764 -0.219882 1.025150 -5.614524 4.198119 -1.625548 0.000000 0.000000 0.000000 -0.649575 -4.114249 7.311219 0.290376 1.194983 -0.922998 0.210721 0.992785 0.152994 0.000000 0.000000 0.000000 
106.487999 -136.916000 1098.286011 4.971931 3.325098 -2.683406 0.194251 -0.724008 3.339386 0.036233 -0.588297 -0.798819 0.065747 -0.860380 -0.191135 -0.292590 -0.155913 0.879972 0.000000 0.000000 0.000000 4.792684 -0.141084 3.940678 -0.370616 1.914577 -4.174828 0.458021 -0.670364 2.099970 0.000000 0.000000 0.000000 0.783921 -0.383352 0.225571 -0.436365 -1.096050 2.645568 -0.501490 6.002723 -2.928045 0.000000 0.000000 0.000000 -5.684832 -0.992158 1.329510 -5.683393 0.518051 0.955253 -5.562731 3.756555 -1.698537 0.000000 0.000000 0.000000 -0.728037 -4.505174 7.392806 0.250840 1.698819 -0.798009 0.202918 0.588528 0.124012 0.000000 0.000000 0.000000 
111.517998 -137.621002 1098.003052 4.927208 3.715778 -2.760209 0.182317 -0.671554 3.550874 0.004279 -0.682140 -0.857078 0.037524 -0.878443 -0.180250 -0.292388 -0.022126 0.919109 0.000000 0.000000 0.000000 4.666938 -0.221323 3.866484 -0.345640 1.830695 -4.432815 0.462435 -0.301044 2.185110 0.000000 0.000000 0.000000 0.741330 -0.380517 0.279584 -0.411244 -1.122760 2.904023 -0.513473 6.098691 -3.182208 0.000000 0.000000 0.000000 -5.624794 -1.511695 1.493746 -5.637334 1.387546 0.860604 -5.493952 3.229896 -1.782541 0.000000 0.000000 0.000000 -0.747710 -4.733416 7.583031 0.257564 1.954283 -0.774854 0.219681 0.219026 0.107346 0.000000 0.000000 0.000000 
117.641998 -138.477997 1097.682007 4.806889 4.138113 -2.865769 0.174082 -0.651398 3.782836 -0.023356 -0.761007 -0.911919 0.014493 -0.909394 -0.169705 -0.290003 0.100996 0.948242 0.000000 0.000000 0.000000 4.478545 -0.318563 3.768973 -0.308643 1.712011 -4.694299 0.461128 0.190503 2.258537 0.000000 0.000000 0.000000 0.746222 -0.356878 0.385381 -0.371227 -1.115496 3.124874 -0.516109 6.094779 -3.433956 0.000000 0.000000 0.000000 -5.553335 -2.077717 1.706517 -5.579838 2.406736 0.736154 -5.412441 2.629133 -1.877074 0.000000 0.000000 0.000000 -0.724051 -4.839193 7.853127 0.296866 2.033248 -0.820460 0.254141 -0.145147 0.098274 0.000000 0.000000 0.000000 
